<svg width="15" height="16" viewBox="0 0 15 16" fill="none" xmlns="http://www.w3.org/2000/svg">
<path d="M13.6365 8.6818V9.45453C13.6365 11.6637 11.8456 13.4545 9.63648 13.4545H5.36375C3.15461 13.4545 1.36375 11.6637 1.36375 9.45453V9.2818C1.36375 8.95043 1.63238 8.6818 1.96375 8.6818H13.6365Z" stroke="black" stroke-linecap="round" stroke-linejoin="round"/>
<path d="M10.2273 13.4545L10.9091 14.8182" stroke="black" stroke-linecap="round" stroke-linejoin="round"/>
<path d="M4.77271 13.4545L4.09089 14.8182" stroke="black" stroke-linecap="round" stroke-linejoin="round"/>
<path d="M13.6364 8.68183V5.86365C13.6364 3.65451 11.8455 1.86365 9.63636 1.86365H7.5" stroke="black" stroke-linecap="round" stroke-linejoin="round"/>
<path d="M9.62726 5.27271H5.37278C5.0414 5.27271 4.77663 5.00446 4.82423 4.67651C4.96611 3.69918 5.49893 1.86361 7.50002 1.86361C9.50112 1.86361 10.0339 3.69918 10.1758 4.67651C10.2234 5.00446 9.95865 5.27271 9.62726 5.27271Z" stroke="black" stroke-linecap="round" stroke-linejoin="round"/>
</svg>
