<svg width="102" height="28" viewBox="0 0 102 28" fill="none" xmlns="http://www.w3.org/2000/svg">
<g clip-path="url(#clip0_20019_583)">
<path d="M25.375 22.4907V6.125H31.6641C32.5427 6.125 33.3442 6.21759 34.0687 6.40278C34.7932 6.57253 35.4252 6.85802 35.9647 7.25926C36.5042 7.64506 36.9204 8.16975 37.2133 8.83333C37.5061 9.49691 37.6526 10.3148 37.6526 11.287C37.6526 12.1667 37.4984 12.9228 37.1901 13.5556C36.8819 14.1883 36.458 14.713 35.9185 15.1296C35.3789 15.5463 34.7701 15.8627 34.0918 16.0787L37.5832 22.4907H34.878L31.641 16.4722H27.8259V22.4907H25.375ZM27.8259 14.2731H31.1554C31.7103 14.2731 32.2267 14.2346 32.7045 14.1574C33.1978 14.0648 33.6294 13.9105 33.9994 13.6944C34.3693 13.463 34.6545 13.1543 34.8549 12.7685C35.0707 12.3673 35.1786 11.858 35.1786 11.2407C35.194 10.5309 35.0552 9.96759 34.7624 9.55093C34.4849 9.11883 34.0687 8.8179 33.5138 8.64815C32.9589 8.46296 32.2884 8.37037 31.5022 8.37037H27.8259V14.2731Z" fill="black"/>
<path d="M45.4955 22.6296C44.2161 22.6296 43.1448 22.3673 42.2816 21.8426C41.4184 21.3179 40.7633 20.5926 40.3163 19.6667C39.8847 18.7253 39.6688 17.6451 39.6688 16.4259C39.6688 15.1914 39.8924 14.1034 40.3394 13.162C40.8018 12.2207 41.4646 11.4799 42.3278 10.9398C43.2065 10.3997 44.2623 10.1296 45.4955 10.1296C46.4358 10.1296 47.2527 10.3071 47.9464 10.662C48.64 11.0015 49.2104 11.4645 49.6574 12.0509C50.1198 12.6373 50.4589 13.2932 50.6747 14.0185C50.8905 14.7284 50.983 15.4691 50.9522 16.2407C50.9522 16.4105 50.9445 16.5725 50.9291 16.7269C50.9137 16.8812 50.8982 17.0432 50.8828 17.213H42.0735C42.1197 17.8302 42.2739 18.3935 42.5359 18.9028C42.8134 19.412 43.1987 19.821 43.692 20.1296C44.1853 20.4228 44.7941 20.5694 45.5186 20.5694C45.9194 20.5694 46.3048 20.5231 46.6747 20.4306C47.0601 20.3225 47.3992 20.1605 47.692 19.9444C48.0003 19.713 48.2161 19.4198 48.3395 19.0648H50.7441C50.5437 19.8827 50.1815 20.5617 49.6574 21.1019C49.1487 21.6265 48.5244 22.0123 47.7845 22.2593C47.0601 22.5062 46.297 22.6296 45.4955 22.6296ZM42.1197 15.3148H48.5938C48.5784 14.713 48.4396 14.1806 48.1776 13.7176C47.9156 13.2392 47.5533 12.8688 47.0909 12.6065C46.6285 12.3287 46.0735 12.1898 45.4261 12.1898C44.7171 12.1898 44.1236 12.3364 43.6458 12.6296C43.1833 12.9228 42.8211 13.3086 42.559 13.787C42.3124 14.25 42.166 14.7593 42.1197 15.3148Z" fill="black"/>
<path d="M57.2926 22.6296C56.7377 22.6296 56.1981 22.5602 55.6741 22.4213C55.1654 22.267 54.7107 22.0432 54.3099 21.75C53.9091 21.4414 53.5854 21.0633 53.3388 20.6157C53.1076 20.1528 52.992 19.6127 52.992 18.9954C52.992 18.2546 53.1307 17.6451 53.4081 17.1667C53.701 16.6728 54.0864 16.2948 54.5642 16.0324C55.0421 15.7546 55.5893 15.5617 56.2059 15.4537C56.8378 15.3302 57.493 15.2685 58.1712 15.2685H61.1539C61.1539 14.6667 61.0614 14.142 60.8764 13.6944C60.6914 13.2315 60.3986 12.8765 59.9978 12.6296C59.6124 12.3673 59.0961 12.2361 58.4487 12.2361C58.0633 12.2361 57.6933 12.2824 57.3388 12.375C56.9997 12.4522 56.7068 12.5833 56.4602 12.7685C56.2136 12.9537 56.044 13.2006 55.9515 13.5093H53.4544C53.5469 12.9228 53.755 12.4213 54.0787 12.0046C54.4024 11.5725 54.8031 11.2176 55.281 10.9398C55.7588 10.662 56.2675 10.4614 56.807 10.338C57.3619 10.1991 57.9246 10.1296 58.4949 10.1296C60.2521 10.1296 61.5161 10.6466 62.2868 11.6806C63.073 12.6991 63.466 14.1034 63.466 15.8935V22.4907H61.4082L61.3157 20.9398C60.9612 21.4182 60.5373 21.7809 60.044 22.0278C59.5662 22.2747 59.0883 22.4367 58.6105 22.5139C58.1327 22.591 57.6933 22.6296 57.2926 22.6296ZM57.6625 20.6157C58.3562 20.6157 58.965 20.5 59.4891 20.2685C60.0132 20.0216 60.4217 19.6744 60.7146 19.2269C61.0074 18.7639 61.1539 18.2238 61.1539 17.6065V17.0972H58.9804C58.5334 17.0972 58.0941 17.1127 57.6625 17.1435C57.2463 17.159 56.861 17.2207 56.5064 17.3287C56.1673 17.4213 55.8899 17.5833 55.6741 17.8148C55.4737 18.0463 55.3735 18.3781 55.3735 18.8102C55.3735 19.2269 55.4814 19.5664 55.6972 19.8287C55.913 20.091 56.1981 20.2917 56.5527 20.4306C56.9072 20.554 57.2772 20.6157 57.6625 20.6157Z" fill="black"/>
<path d="M66.3237 22.4907V6.125H68.7052V22.4907H66.3237Z" fill="black"/>
<path d="M76.3693 22.6296C75.0591 22.6296 74.1188 22.2747 73.5485 21.5648C72.9936 20.8395 72.7161 19.8287 72.7161 18.5324V12.4213H70.7739V10.2917H72.7161V6.75H75.0977V10.2917H78.8202V12.4213H75.0977V18.1389C75.0977 18.571 75.1362 18.9645 75.2133 19.3194C75.3057 19.6744 75.4753 19.9522 75.7219 20.1528C75.9686 20.3534 76.3231 20.4614 76.7855 20.4769C77.1401 20.4769 77.4483 20.4151 77.7104 20.2917C77.9879 20.1682 78.2114 20.0293 78.3809 19.875L79.3058 21.6574C79.0129 21.8889 78.7046 22.0818 78.3809 22.2361C78.0726 22.375 77.7489 22.4753 77.4098 22.537C77.0707 22.5988 76.7239 22.6296 76.3693 22.6296Z" fill="black"/>
<path d="M86.3873 28C85.447 28 84.5376 27.8688 83.659 27.6065C82.7803 27.3596 81.9788 26.9198 81.2543 26.287L82.2023 24.3889C82.7572 24.8364 83.3661 25.1914 84.0289 25.4537C84.7071 25.716 85.4239 25.8472 86.1792 25.8472C87.4278 25.8472 88.3295 25.5077 88.8845 24.8287C89.4394 24.1497 89.7168 23.2623 89.7168 22.1667V20.9861C89.4394 21.3719 89.0925 21.696 88.6764 21.9583C88.2756 22.2052 87.8286 22.3827 87.3353 22.4907C86.842 22.6142 86.3411 22.6759 85.8324 22.6759C84.6455 22.6759 83.6975 22.4367 82.9884 21.9583C82.2948 21.4645 81.7938 20.7932 81.4855 19.9444C81.1927 19.0957 81.0462 18.1157 81.0462 17.0046V10.2917H83.4509V16.4259C83.4509 16.9198 83.4817 17.4136 83.5434 17.9074C83.605 18.4012 83.736 18.8488 83.9364 19.25C84.1368 19.6358 84.4297 19.9522 84.8151 20.1991C85.2004 20.4306 85.7245 20.5463 86.3873 20.5463C87.2197 20.5463 87.8748 20.3457 88.3527 19.9444C88.8305 19.5278 89.1696 18.9877 89.37 18.3241C89.5704 17.6451 89.6706 16.912 89.6706 16.125V10.2917H92.0521V21.912C92.0521 22.8688 91.9365 23.7253 91.7053 24.4815C91.4895 25.2377 91.1427 25.8781 90.6648 26.4028C90.2024 26.9275 89.6166 27.321 88.9076 27.5833C88.2139 27.8611 87.3738 28 86.3873 28Z" fill="black"/>
<path d="M94.9548 22.4907V10.2917H97.1976L97.3132 12.0509C97.6215 11.5725 97.976 11.1944 98.3768 10.9167C98.7775 10.6389 99.2169 10.4383 99.6947 10.3148C100.173 10.1914 100.674 10.1296 101.198 10.1296C101.336 10.1296 101.467 10.1296 101.591 10.1296C101.714 10.1296 101.83 10.1296 101.938 10.1296V12.4213H101.198C100.319 12.4213 99.5868 12.5988 99.0011 12.9537C98.4307 13.3086 98.0068 13.8025 97.7294 14.4352C97.4673 15.0679 97.3363 15.7932 97.3363 16.6111V22.4907H94.9548Z" fill="black"/>
<path d="M15.4138 0.254769C15.8302 -0.0927541 16.4387 -0.0837949 16.8446 0.275834L19.9397 3.01804V2.43464C19.9397 1.83058 20.4304 1.34089 21.0357 1.34089H22.5312C23.1353 1.34089 23.625 1.83058 23.625 2.43464C23.625 3.0387 23.1353 3.52839 22.5312 3.52839H22.1317V5.45168C22.1317 5.88228 21.8786 6.2728 21.485 6.44931C21.0915 6.62582 20.6307 6.55548 20.3081 6.2696L16.0956 2.53745L4.11479 12.5375H5.65597C6.26128 12.5375 6.75198 13.0272 6.75198 13.6312V25.8125H11.6263V18.1233C11.6263 17.5192 12.117 17.0295 12.7223 17.0295H19.4423C20.0476 17.0295 20.5383 17.5192 20.5383 18.1233V25.8125H22.4041C23.0081 25.8125 23.4978 26.3022 23.4978 26.9062C23.4978 27.5103 23.0081 28 22.4041 28H19.4423C18.837 28 18.3463 27.5103 18.3463 26.9062V19.217H13.8184V26.9062C13.8184 27.5103 13.3277 28 12.7223 28H5.65597C5.05067 28 4.55997 27.5103 4.55997 26.9062V14.725H1.09606C0.63498 14.725 0.223206 14.437 0.0658541 14.0045C-0.0914982 13.572 0.039223 13.0874 0.392902 12.7922L15.4138 0.254769Z" fill="black"/>
</g>
<defs>
<clipPath id="clip0_20019_583">
<rect width="102" height="28" fill="white"/>
</clipPath>
</defs>
</svg>
