<svg width="66" height="66" viewBox="0 0 66 66" fill="none" xmlns="http://www.w3.org/2000/svg">
<path d="M4.61681 21.8259L32.7642 2.93748L60.9116 21.8259C61.7319 22.3763 61.3422 23.6562 60.3544 23.6562H57.1392V63.4687H8.3892V23.6562H5.17402C4.18618 23.6562 3.79654 22.3763 4.61681 21.8259Z" stroke="black" stroke-linejoin="round"/>
<path d="M17.733 27.3125V27.3125C17.0599 26.6394 15.9685 26.6394 15.2955 27.3125L13.4597 29.1483C12.6786 29.9294 12.6786 31.1957 13.4597 31.9767L19.1625 37.6796C19.9435 38.4606 21.2099 38.4606 21.9909 37.6796L23.6312 36.0392C24.4123 35.2582 24.4046 33.9842 23.6236 33.2032V33.2032M17.733 27.3125L24.8423 20.2032M17.733 27.3125L23.6236 33.2032M28.7017 24.0625L31.2969 21.4673C31.6664 21.0978 32.2581 21.0751 32.6548 21.4152L34.5146 23.0093C34.6958 23.1646 34.9267 23.25 35.1654 23.25H38.0687C38.9596 23.25 39.4058 22.1729 38.7758 21.5429L31.1392 13.9063L24.8423 20.2032M28.7017 24.0625L24.8423 20.2032M28.7017 24.0625L30.0258 25.3867C30.4164 25.7772 30.4164 26.4104 30.0258 26.8009L29.108 27.7188M23.6236 33.2032L26.2642 30.5625M26.2642 30.5625L29.108 27.7188M26.2642 30.5625L33.3736 37.6719M40.483 44.7813L43.3267 41.9375M40.483 44.7813V46.3904C40.483 46.9208 40.6937 47.4295 41.0687 47.8046L47.6 54.3358C48.381 55.1169 49.6474 55.1169 50.4284 54.3358L52.8812 51.883C53.6623 51.1019 53.6623 49.8356 52.8812 49.0546L46.35 42.5233C45.9749 42.1482 45.4662 41.9375 44.9358 41.9375H43.3267M40.483 44.7813L36.6236 40.9219M43.3267 41.9375L39.4673 38.0782M29.108 27.7188L36.2173 34.8282M36.2173 34.8282L45.9811 25.0644C46.1068 24.9387 46.2487 24.8303 46.403 24.7421L47.7671 23.9626C48.5034 23.5419 49.4302 23.666 50.0298 24.2657V24.2657C50.6295 24.8653 50.7536 25.7921 50.3328 26.5283L49.5533 27.8925C49.4651 28.0468 49.3568 28.1887 49.2311 28.3144L39.4673 38.0782M36.2173 34.8282L39.4673 38.0782M33.3736 37.6719L26.2642 44.7813M33.3736 37.6719L36.6236 40.9219M26.2642 44.7813L29.5142 48.0313M26.2642 44.7813H24.6551C24.1247 44.7813 23.616 44.992 23.2409 45.3671L16.7097 51.8983C15.9286 52.6794 15.9286 53.9457 16.7097 54.7267L19.5687 57.5858C20.3498 58.3669 21.6161 58.3669 22.3972 57.5858L28.9284 51.0546C29.3035 50.6795 29.5142 50.1708 29.5142 49.6404V48.0313M29.5142 48.0313L36.6236 40.9219" stroke="black" stroke-linejoin="round"/>
</svg>
