<svg width="66" height="65" viewBox="0 0 66 65" fill="none" xmlns="http://www.w3.org/2000/svg">
<path d="M8.19123 6.6168H6.05467V2.34369H31.6933V6.6168H29.5568M8.19123 6.6168V62.1672H14.6009M8.19123 6.6168H29.5568M29.5568 62.1672V6.6168M29.5568 62.1672H23.1471M29.5568 62.1672H35.9664M3.91812 62.1672H14.6009M14.6009 62.1672V53.621H23.1471V62.1672M14.6009 62.1672H23.1471M12.4643 10.8899H16.7374V17.2996H12.4643V10.8899ZM21.0105 10.8899H25.2837V17.2996H21.0105V10.8899ZM12.4643 21.5727H16.7374V27.9823H12.4643V21.5727ZM21.0105 21.5727H25.2837V27.9823H21.0105V21.5727ZM12.4643 32.2554H16.7374V38.6651H12.4643V32.2554ZM21.0105 32.2554H25.2837V38.6651H21.0105V32.2554ZM12.4643 42.9382H16.7374V49.3479H12.4643V42.9382ZM21.0105 42.9382H25.2837V49.3479H21.0105V42.9382Z" stroke="black" stroke-linecap="round" stroke-linejoin="round"/>
<path d="M29.9852 18.1542H35.9675M29.9852 22H35.9675" stroke="black"/>
<path d="M57.3323 6.6168H59.4689V2.34369H33.8302V6.6168H35.9668M57.3323 6.6168V62.1672H50.9227M57.3323 6.6168H35.9668M35.9668 6.6168V62.1672H42.3764M61.6054 62.1672H50.9227M50.9227 62.1672V53.621H42.3764V62.1672M50.9227 62.1672H42.3764M53.0592 10.8899H48.7861V17.2996H53.0592V10.8899ZM44.513 10.8899H40.2399V17.2996H44.513V10.8899ZM53.0592 21.5727H48.7861V27.9823H53.0592V21.5727ZM44.513 21.5727H40.2399V27.9823H44.513V21.5727ZM53.0592 32.2554H48.7861V38.6651H53.0592V32.2554ZM44.513 32.2554H40.2399V38.6651H44.513V32.2554ZM53.0592 42.9382H48.7861V49.3479H53.0592V42.9382ZM44.513 42.9382H40.2399V49.3479H44.513V42.9382Z" stroke="black" stroke-linecap="round" stroke-linejoin="round"/>
</svg>
