<svg width="66" height="65" viewBox="0 0 66 65" fill="none" xmlns="http://www.w3.org/2000/svg">
<path d="M14.4824 46.2188H2.29492M14.4824 46.2188L15.7859 46.7774C16.7854 47.2058 17.618 47.9483 18.1576 48.8924L18.9512 50.2812M14.4824 46.2188V42.1562M2.29492 46.2188V1.53125H14.4824V5.59375M2.29492 46.2188V62.4688H18.9512M18.9512 50.2812V62.4688M18.9512 50.2812H22.6074M18.9512 62.4688H63.2324V50.2812H59.1699M22.6074 50.2812V54.75M22.6074 50.2812H26.6699M26.6699 50.2812V56.375M26.6699 50.2812H30.7324M30.7324 50.2812V54.75M30.7324 50.2812H34.7949M34.7949 50.2812V56.375M34.7949 50.2812H38.8574M38.8574 50.2812V54.75M38.8574 50.2812H42.9199M42.9199 50.2812V56.375M42.9199 50.2812H46.9824M46.9824 50.2812V54.75M46.9824 50.2812H51.0449M51.0449 50.2812V56.375M51.0449 50.2812H55.1074M55.1074 50.2812V54.75M55.1074 50.2812H59.1699M59.1699 50.2812V56.375M14.4824 42.1562H10.0137M14.4824 42.1562V38.0938M14.4824 38.0938H7.98242M14.4824 38.0938V34.0312M14.4824 34.0312H10.0137M14.4824 34.0312V29.9688M14.4824 29.9688H7.98242M14.4824 29.9688V25.9062M14.4824 25.9062H10.0137M14.4824 25.9062V21.8438M14.4824 21.8438H7.98242M14.4824 21.8438V17.7812M14.4824 17.7812H10.0137M14.4824 17.7812V13.7188M14.4824 13.7188H7.98242M14.4824 13.7188V9.65625M14.4824 9.65625H10.0137M14.4824 9.65625V5.59375M14.4824 5.59375H7.98242" stroke="black" stroke-linecap="round" stroke-linejoin="round"/>
<path d="M56.7324 10.4688H60.1855M63.6387 10.4688H60.1855M60.1855 10.4688V44.1875M60.1855 44.1875H57.1387M60.1855 44.1875H63.6387M20.5762 1.53125V4.78125M20.5762 8.03125V4.78125M20.5762 4.78125H55.1074V1.53125V8.03125M52.2637 24.6875H54.7012L38.0449 10.0625L21.3887 24.6875H52.2637ZM52.2637 24.6875V44.1875H42.9199M23.8262 25.0938V44.1875H32.7637M42.9199 44.1875V32H32.7637V44.1875M42.9199 44.1875H32.7637" stroke="black" stroke-linecap="round" stroke-linejoin="round"/>
<circle cx="10.421" cy="54.3437" r="3.15625" stroke="black"/>
</svg>
